<?xml version="1.0" encoding="UTF-8"?>
<svg id="Layer_1" data-name="Layer 1" xmlns="http://www.w3.org/2000/svg" viewBox="0 0 16 10">
  <path d="m0,2C0,.9.9,0,2,0h7.5c1,0,1.85.74,1.98,1.74l3.11-1.38c.5-.22,1.1,0,1.32.51.06.13.09.27.09.41v7.46c0,.55-.45,1-1,1-.14,0-.28-.03-.41-.09l-3.11-1.38c-.13.99-.98,1.74-1.98,1.74H2c-1.1,0-2-.9-2-2V2Zm11.5,5.18l3.5,1.56V1.27l-3.5,1.56v4.35ZM2,1c-.55,0-1,.45-1,1v6c0,.55.45,1,1,1h7.5c.55,0,1-.45,1-1V2c0-.55-.45-1-1-1H2Z" style="fill: #3b4042; fill-rule: evenodd;"/>
  <path d="m3.96,7.75V2.08h.8v5.68h-.8Zm.41-2.2v-.76h1.82c.26,0,.47-.09.63-.27s.24-.42.24-.71-.08-.54-.24-.71-.37-.27-.63-.27h-1.82v-.76h1.79c.34,0,.64.07.9.22s.45.35.6.61.21.57.21.92-.07.65-.21.91-.34.46-.6.61-.55.21-.9.21h-1.79Z" style="fill: #3b4042;"/>
</svg>