<?xml version="1.0" encoding="utf-8"?>
<!-- Generator: Adobe Illustrator 27.5.0, SVG Export Plug-In . SVG Version: 6.00 Build 0)  -->
<svg version="1.1" id="Layer_1" xmlns="http://www.w3.org/2000/svg" xmlns:xlink="http://www.w3.org/1999/xlink" x="0px" y="0px"
	 viewBox="0 0 50 50" style="enable-background:new 0 0 50 50;" xml:space="preserve">
<style type="text/css">
	.st0{fill-rule:evenodd;clip-rule:evenodd;fill:#330066;}
</style>
<path class="st0" d="M25,0c13.8,0,25,11.2,25,25S38.8,50,25,50S0,38.8,0,25S11.2,0,25,0z M25,8.5c9.1,0,16.5,7.4,16.5,16.5
	S34.1,41.5,25,41.5S8.5,34.1,8.5,25S15.9,8.5,25,8.5z M30.2,7.3l-2.1-0.4l0.2-4.5l3.5,0.8C31.8,3.1,30.2,7.3,30.2,7.3z M17.9,41.9
	L16,41l-2.6,3.6l3.3,1.6C16.7,46.2,17.9,41.9,17.9,41.9z M37.6,11.6L36,10.2l2.3-3.8L41,8.7L37.6,11.6z M10.8,36.6l-1.3-1.7l-4,2
	l2.1,2.9C7.7,39.8,10.8,36.6,10.8,36.6z M42.4,19.1l-0.8-2l3.8-2.3l1.4,3.4L42.4,19.1z M7,28.6l-0.3-2.1l-4.5-0.1l0.5,3.6
	C2.7,29.9,7,28.6,7,28.6z M43.1,28l0.2-2.1l4.4-0.3l-0.4,3.6C47.4,29.2,43.1,28,43.1,28z M7.4,19.7l0.7-2l-3.9-2.2L3,18.9
	C3,18.9,7.4,19.7,7.4,19.7z M39.6,36.1l1.2-1.8l4.1,1.8l-2,3C42.8,39.2,39.6,36.1,39.6,36.1z M11.9,12.1l1.6-1.4l-2.4-3.8L8.4,9.3
	C8.4,9.3,11.9,12.1,11.9,12.1z M32.7,41.7l1.9-1l2.7,3.5l-3.2,1.7L32.7,41.7z M19.5,7.4l2.1-0.5l-0.4-4.4l-3.5,0.9L19.5,7.4z
	 M23.9,43.3h2.2l0.7,4.4h-3.6C23.2,47.7,23.9,43.3,23.9,43.3z M20.9,47.4l-2.1-0.5l0.3-4.4l3.5,0.8C22.6,43.2,20.9,47.4,20.9,47.4z
	 M35.9,5L34,4.1l-2.6,3.6l3.3,1.6C34.7,9.3,35.9,5,35.9,5z M11.2,43.1l-1.6-1.4l2.3-3.8l2.8,2.3L11.2,43.1z M44,12.5l-1.3-1.7l-4,2
	l2.1,2.9C40.9,15.7,44,12.5,44,12.5z M4.3,34.5l-0.8-2l3.8-2.3l1.4,3.4C8.7,33.5,4.3,34.5,4.3,34.5z M47.7,22.9l-0.3-2.1l-4.5-0.1
	l0.5,3.6C43.4,24.2,47.7,22.9,47.7,22.9z M2.3,23.7l0.2-2.1L7,21.3l-0.4,3.6C6.6,24.9,2.3,23.7,2.3,23.7z M46,33.8l0.7-2l-3.9-2.2
	l-1.2,3.4C41.6,32.9,46,33.8,46,33.8z M5.6,13.2l1.2-1.8l4.1,1.8l-2,3C8.8,16.2,5.6,13.2,5.6,13.2z M39.4,42.6l1.6-1.4l-2.4-3.8
	l-2.7,2.4C35.9,39.8,39.4,42.6,39.4,42.6z M13.4,5.4l1.9-1L18,7.9l-3.2,1.7L13.4,5.4z M29.5,47.3l2.1-0.5l-0.4-4.4l-3.5,0.9
	L29.5,47.3z M23.9,2.2h2.2l0.7,4.4h-3.6C23.2,6.6,23.9,2.2,23.9,2.2z"/>
<path class="st0" d="M25.6,33.2c0.3,0.3,0.1,0.5,0.2,1.2c0,0.2,0.1,0.4,0.1,0.6c0,0.1,0,0.1,0,0.2c-0.1,0.3-0.1,0.2-0.2,0.3
	C25.5,35.1,25.5,33.5,25.6,33.2z M14.8,31.9c0.3,0.6,0.5,1.2,0.7,1.9c0.4,1.4,0.2,0.9-0.4,1.8l0.6,0.2l0.8,0l-0.4-4.3
	c-0.3-1.3-0.1-3.1,0-4.5c0.3,0.4,0.4,0.8,0.4,1.3c0,1.2-0.1,0.5,0.4,1.2c0,1.1-0.2,1.8,0,2.9c0.1,0.5,0.1,0.9,0.1,1.4
	c0,1.5-0.7,1.1,0.3,1.5c0.4,0.2,0.5,0.6,1.2,0c-0.2-0.6-0.8-0.2-0.8-1.3c0-0.6,0.2-1.2,0.3-1.8c0.3-1.6,0-2.5,0.1-4l0.1-2.9
	c0.1-0.4,0.2-0.5,0.1-0.9c-0.1-0.8-0.6-3-0.2-3.7c0.2,0.3,0.4,1.4,1.3,1.5c0.5,0.3,0.2,0.3,0.9,0.9c0.8,0.8,0.6,1.2,0.7,1.7
	c0.1,0.4,0.2,0.3,0.3,0.6c0.2,0.4,0,0.7,0.6,0.5l0.2-0.1c0,0,0.1,0,0.1,0c0.9,1.1,2,1.4,2,2.8c0,0.8-0.1,1.5-0.1,2.3
	c0,0.8,0.2,0.3,0.1,1.1c0,0.4-0.1,0.8-0.1,1.2l0.7,0.2c0,0.8,0,0.8,0.2,1.5c0.3,1.2-0.2,0.9-0.1,1.3l0.8,0l0.1-0.2
	c0.4,0.2,0.3,0.1,0.7,0c0-0.4-0.1-0.6-0.1-1.1l0.4-3.3c0.5-1.9-0.9-3.2,1.2-4.9c0.6-0.5,1.4-1.7,1.7-2c0.7-0.8,2.4-1.4,2.8-2.4
	l0.6-0.7c0,1.8,0.6-0.1,0,3.4c-0.2,1.1-0.2,2.7-0.1,3.8c0.1,1.3,0.2,4,0.9,5.1c0.3,0.5,0.5,0.8,0.4,1.6l-0.6,0.2
	c0.1,0.6,0.1,0.1,0.2,0.5c0.1,0.3-0.2,0.2,0.1,0.6c0.6,0.1,0.6,0.1,0.9-0.2c0.1-0.5,0,0,0.4-0.4c0-1-0.1-1.1,0.3-1.9
	c0.2-0.5,0.1-0.7,0.1-1.4c-0.1-3,1.1-5.8,0.9-7c-0.2-1-0.7-1.8-0.4-2.9c0.1-0.4,0.2-0.5,0.3-0.5c0,0,0.4,0.4,0.6,0.8
	c0.3,0.6,0.4,0.6,0.7,1c1,1.3,0.5,1.1,0.9,2.7c0.4-0.2-0.3,0.3,0.2-0.2c0.2-0.2-0.1-0.2,0.1-0.1c0.2,0.4,0,0.5-0.1,0.9
	c0.9-0.5,0.4-1.4,0-2.1c-0.3-0.6-0.5-1.5-0.8-2.1c-0.4-0.8-0.7-0.8-1-1.9c-0.4-1.5-0.1-1-1-2c-0.7-0.8-0.7-1.7-1.2-2.5
	c-0.7-1.1-1.5-1-2.2,0c0.3,1.1,0.3,1.5,0.9,2.3l-0.3,0.2c-0.6,0.4-1.3,1.8-1.4,2.2c-0.5,0.3-1,1-1.4,1.4c-1.5,1.6-1.6,1-1.8,2.3
	c-0.1,0.3-0.4,0.4-0.7,0.7c-0.6,0.6-1,0.7-2,0.8c0.2-0.5,0.4-0.4,0.3-1.3c-0.1-0.5-0.3-0.8-0.8-0.8c-1.3-0.1-1.1,1-0.8,2
	c-1.3,0.1-0.9-0.3-1.6-0.8c-0.9-0.5-0.7-0.2-1.1-1.2l-1.6-3.1c-0.2-0.8-0.9-2-1.3-2.7c-1-1.7-1.4-1.3-2-1.9c0.8-2.5-1.4-3-1.8-1.7
	c-0.1,0.6,0.2,1.1-0.9,1.7c-1.8,0.9-1.5,1.5-1.9,3.2c-0.2,0.9-0.4,0.6-0.4,1.8c0,0.7,0.1,1.6,0.1,2.4c-0.1,1-0.1,1.3,0.6,1.7
	c0.7-0.7-0.1-1.3,0.1-2.4c0.1-0.5,0.5-1.9,0.7-2.2c0.4,0.7-0.5,2.3-0.2,3.6c0.2,1.2-0.1,2.6,0,3.8l1.3,0.2
	C14.6,29.2,14.8,31.9,14.8,31.9z"/>
</svg>
